<?xml version="1.0" encoding="UTF-8"?>
<!DOCTYPE svg PUBLIC "-//W3C//DTD SVG 1.1//EN" "http://www.w3.org/Graphics/SVG/1.1/DTD/svg11.dtd">
<!-- Creator: CorelDRAW 2018 (64-Bit) -->
<svg xmlns="http://www.w3.org/2000/svg" xml:space="preserve" width="158.239mm" height="38.9194mm" version="1.1" style="shape-rendering:geometricPrecision; text-rendering:geometricPrecision; image-rendering:optimizeQuality; fill-rule:evenodd; clip-rule:evenodd"
viewBox="0 0 16609.57 4085.19"
 xmlns:xlink="http://www.w3.org/1999/xlink">
 <defs>
  <style type="text/css">
   <![CDATA[
    .fil1 {fill:#727270}
    .fil2 {fill:#FEED00}
    .fil0 {fill:black;fill-rule:nonzero}
    .fil3 {fill:#727270;fill-opacity:0.501961}
   ]]>
  </style>
 </defs>
 <g id="__x0023_Layer_x0020_1">
  <metadata id="CorelCorpID_0Corel-Layer"/>
  <g id="_2340176479216">
   <path class="fil0" d="M5635.44 2842.41l117.99 0 0 -1047.51 448.01 1047.51 98.86 0 448.02 -1047.51 0 1047.51 117.98 0 0 -1179.84 -181.76 0 -433.67 1004.46 -433.67 -1004.46 -181.76 0 0 1179.84zm2316.64 -393.81c1.6,-224.81 -117.99,-499.05 -448.02,-499.05 -296.56,0 -454.39,242.34 -454.39,457.59 0,261.48 197.7,456 454.39,456 197.7,0 357.14,-116.4 427.29,-304.53l-122.77 0c-54.2,119.58 -167.41,197.7 -304.53,197.7 -183.35,0 -317.28,-133.94 -331.63,-307.72l779.65 0zm-779.65 -106.82c28.7,-165.82 164.22,-285.4 331.63,-285.4 151.46,0 286.99,108.42 320.47,285.4l-652.1 0zm1838.31 -679.21l-117.98 0 0 459.18 -3.19 0c-105.23,-161.03 -266.26,-172.2 -338.01,-172.2 -309.31,0 -462.37,247.13 -462.37,451.21 0,267.85 205.68,462.37 465.56,462.37 141.9,0 263.07,-65.37 341.2,-180.17l3.19 0 0 159.44 111.6 0 0 -1179.84zm-459.18 393.81c200.89,0 347.58,154.66 347.58,355.55 0,194.51 -151.48,344.39 -344.39,344.39 -186.54,0 -347.57,-145.09 -347.57,-345.99 0,-202.49 154.66,-353.95 344.38,-353.95zm2154.01 -92.47c-98.85,-204.07 -298.14,-322.07 -543.68,-322.07 -341.2,0 -612.24,256.7 -612.24,607.47 0,360.32 275.83,613.84 621.8,613.84 231.19,0 428.89,-122.77 538.9,-328.45l-140.31 0c-95.67,153.06 -255.1,221.62 -398.6,221.62 -280.61,0 -503.82,-216.84 -503.82,-507.01 0,-269.46 199.3,-500.64 495.86,-500.64 253.5,0 369.89,165.82 401.78,215.24l140.31 0zm173.78 878.51l117.99 0 0 -1179.84 -117.99 0 0 1179.84zm1206.95 -872.13l-111.61 0 0 151.46 -3.19 0c-105.23,-161.03 -267.86,-172.2 -342.8,-172.2 -312.49,0 -463.96,243.94 -463.96,451.21 0,271.04 205.67,462.37 467.15,462.37 189.74,0 290.18,-108.42 339.6,-183.35l3.19 0 0 162.62 111.61 0 0 -872.13zm-457.6 86.09c197.7,0 345.99,157.85 345.99,355.55 0,191.33 -151.46,344.39 -342.8,344.39 -186.54,0 -349.17,-146.69 -349.17,-345.99 0,-202.49 156.25,-353.95 345.98,-353.95zm593.12 529.34c0,145.08 84.5,277.42 266.26,277.42 178.58,0 280.61,-117.99 280.61,-277.42 0,-164.23 -122.77,-208.87 -226.4,-242.34 -81.32,-25.52 -170.6,-57.41 -170.6,-157.85 0,-73.34 47.83,-129.15 130.73,-129.15 73.35,0 127.55,52.62 125.96,130.74l117.98 0c1.6,-133.94 -97.25,-237.57 -240.75,-237.57 -157.85,0 -251.91,108.42 -251.91,245.53 0,165.81 137.12,213.65 228,243.94 82.9,28.7 169,58.99 169,165.81 0,78.13 -52.62,151.48 -153.06,151.48 -105.23,0 -165.81,-81.32 -157.85,-170.6l-117.98 0zm618.62 0c0,145.08 84.5,277.42 266.26,277.42 178.58,0 280.61,-117.99 280.61,-277.42 0,-164.23 -122.77,-208.87 -226.4,-242.34 -81.32,-25.52 -170.6,-57.41 -170.6,-157.85 0,-73.34 47.83,-129.15 130.73,-129.15 73.35,0 127.55,52.62 125.96,130.74l117.98 0c1.6,-133.94 -97.25,-237.57 -240.75,-237.57 -157.85,0 -251.91,108.42 -251.91,245.53 0,165.81 137.12,213.65 228,243.94 82.9,28.7 169,58.99 169,165.81 0,78.13 -52.62,151.48 -153.06,151.48 -105.23,0 -165.81,-81.32 -157.85,-170.6l-117.98 0zm1073.02 256.69l117.99 0 0 -473.53 255.1 0c298.15,0 406.56,-176.98 406.56,-352.36 0,-133.93 -60.59,-353.95 -406.56,-353.95l-373.09 0 0 1179.84zm117.99 -1073.02l256.69 0c210.46,0 286.99,121.17 286.99,247.13 0,122.77 -76.53,245.53 -286.99,245.53l-256.69 0 0 -492.67zm808.34 1073.02l117.99 0 0 -1179.84 -117.99 0 0 1179.84zm1087.37 -872.13l-117.98 0 0 478.32c0,245.53 -146.68,307.72 -267.86,307.72 -135.52,0 -277.41,-82.91 -277.41,-326.85l0 -459.18 -117.99 0 0 459.18c0,310.91 178.58,433.67 381.06,433.67 116.4,0 218.43,-47.83 285.4,-146.69l3.19 0 0 125.96 111.6 0 0 -872.13zm135.53 615.43c0,145.08 84.5,277.42 266.26,277.42 178.58,0 280.61,-117.99 280.61,-277.42 0,-164.23 -122.77,-208.87 -226.4,-242.34 -81.32,-25.52 -170.6,-57.41 -170.6,-157.85 0,-73.34 47.83,-129.15 130.73,-129.15 73.35,0 127.55,52.62 125.96,130.74l117.98 0c1.6,-133.94 -97.25,-237.57 -240.75,-237.57 -157.85,0 -251.91,108.42 -251.91,245.53 0,165.81 137.12,213.65 228,243.94 82.9,28.7 169,58.99 169,165.81 0,78.13 -52.62,151.48 -153.06,151.48 -105.23,0 -165.81,-81.32 -157.85,-170.6l-117.98 0z"/>
   <path class="fil1" d="M2226.45 1360.64c608.92,0 1102.57,493.64 1102.57,1102.57 0,608.92 -493.64,1102.57 -1102.57,1102.57 -608.92,0 -1102.57,-493.64 -1102.57,-1102.57 0,-608.92 493.64,-1102.57 1102.57,-1102.57z"/>
   <path class="fil2" d="M2415.13 538.07c519.02,89.51 913.89,541.83 913.89,1086.42 0,608.92 -493.64,1102.57 -1102.57,1102.57 -608.92,0 -1102.57,-493.64 -1102.57,-1102.57 0,-544.59 394.87,-996.91 913.89,-1086.42 43.71,56.21 111.97,92.38 188.68,92.38 76.71,0 144.97,-36.17 188.68,-92.38zm-188.68 319.96c466.26,0 844.24,377.98 844.24,844.24 0,466.26 -377.98,844.24 -844.24,844.24 -466.26,0 -844.24,-377.98 -844.24,-844.24 0,-466.26 377.98,-844.24 844.24,-844.24z"/>
   <path class="fil2" d="M3764.56 3661.62c-377.58,367.19 -975.62,420.64 -1416.13,100.42 -492.55,-358.04 -601.59,-1047.58 -243.55,-1540.12 358.04,-492.54 1047.58,-601.59 1540.12,-243.55 440.51,320.22 574.2,905.57 341.43,1378.03 -71.17,2.3 -140.56,36.24 -185.66,98.29 -45.1,62.06 -55.98,138.53 -36.21,206.94zm-147.86 -340.75c-274.15,377.15 -802.13,460.64 -1179.28,186.49 -377.15,-274.15 -460.64,-802.13 -186.49,-1179.28 274.15,-377.14 802.13,-460.64 1179.28,-186.49 377.14,274.15 460.64,802.13 186.49,1179.28z"/>
   <path class="fil3" d="M2226.45 0c348.19,0 630.45,282.26 630.45,630.45 0,348.19 -282.26,630.45 -630.45,630.45 -348.19,0 -630.45,-282.26 -630.45,-630.45 0,-348.19 282.26,-630.45 630.45,-630.45z"/>
   <path class="fil3" d="M4310.73 3825.38c-204.72,281.64 -599.01,343.99 -880.65,139.27 -281.64,-204.72 -343.99,-599.02 -139.27,-880.66 204.73,-281.63 599.02,-343.98 880.66,-139.26 281.63,204.72 343.99,599.02 139.26,880.65z"/>
   <path class="fil2" d="M666.71 3661.62c377.58,367.19 975.62,420.64 1416.13,100.42 492.55,-358.04 601.59,-1047.58 243.55,-1540.12 -358.04,-492.54 -1047.58,-601.59 -1540.12,-243.55 -440.51,320.22 -574.2,905.57 -341.43,1378.03 71.17,2.3 140.56,36.24 185.66,98.29 45.1,62.06 55.98,138.53 36.21,206.94zm147.86 -340.75c274.15,377.15 802.13,460.64 1179.28,186.49 377.15,-274.15 460.64,-802.13 186.49,-1179.28 -274.15,-377.14 -802.13,-460.64 -1179.28,-186.49 -377.14,274.15 -460.64,802.13 -186.49,1179.28z"/>
   <path class="fil3" d="M120.54 3825.38c204.72,281.64 599.01,343.99 880.65,139.27 281.64,-204.72 343.99,-599.02 139.27,-880.66 -204.73,-281.63 -599.02,-343.98 -880.66,-139.26 -281.63,204.72 -343.99,599.02 -139.26,880.65z"/>
  </g>
 </g>
</svg>
