<?xml version="1.0" encoding="UTF-8"?>
<!DOCTYPE svg PUBLIC "-//W3C//DTD SVG 1.1//EN" "http://www.w3.org/Graphics/SVG/1.1/DTD/svg11.dtd">
<!-- Creator: CorelDRAW 2018 (64-Bit) -->
<svg xmlns="http://www.w3.org/2000/svg" xml:space="preserve" width="207.123mm" height="48.8449mm" version="1.1" style="shape-rendering:geometricPrecision; text-rendering:geometricPrecision; image-rendering:optimizeQuality; fill-rule:evenodd; clip-rule:evenodd"
viewBox="0 0 20589.91 4855.63"
 xmlns:xlink="http://www.w3.org/1999/xlink">
 <defs>
  <style type="text/css">
   <![CDATA[
    .fil4 {fill:#BDBFC1;fill-rule:nonzero}
    .fil3 {fill:black;fill-rule:nonzero}
    .fil2 {fill:black;fill-rule:nonzero}
    .fil1 {fill:url(#id0);fill-rule:nonzero}
    .fil0 {fill:url(#id1);fill-rule:nonzero}
   ]]>
  </style>
  <linearGradient id="id0" gradientUnits="userSpaceOnUse" x1="3453.73" y1="2225.65" x2="2273.17" y2="-246.59">
   <stop offset="0" style="stop-opacity:1; stop-color:#F0E585"/>
   <stop offset="0.0509804" style="stop-opacity:1; stop-color:#B59044"/>
   <stop offset="0.2" style="stop-opacity:1; stop-color:#F3E9A5"/>
   <stop offset="0.301961" style="stop-opacity:1; stop-color:#BC9957"/>
   <stop offset="0.509804" style="stop-opacity:1; stop-color:#EADF9D"/>
   <stop offset="0.690196" style="stop-opacity:1; stop-color:#CDB16E"/>
   <stop offset="0.768627" style="stop-opacity:1; stop-color:#F3E9A5"/>
   <stop offset="0.921569" style="stop-opacity:1; stop-color:#BB9944"/>
   <stop offset="1" style="stop-opacity:1; stop-color:#F3E9A5"/>
  </linearGradient>
  <linearGradient id="id1" gradientUnits="userSpaceOnUse" xlink:href="#id0" x1="6145.38" y1="9172.69" x2="-995.62" y2="-449.38">
  </linearGradient>
 </defs>
 <g id="Слой_x0020_1">
  <metadata id="CorelCorpID_0Corel-Layer"/>
  <g id="_2079979883024">
   <path class="fil0" d="M4521.9 4355.84l0 -705.19c19.29,-380.96 73.49,-683.4 162.61,-906.87 123.36,-309.71 342.93,-541.55 658.76,-697.28l0 2349.69c173.58,10.38 345.19,21.76 514.42,34.29l0 -3123.23c-166.22,0 -362.2,58.61 -589.66,176.71 -209.97,109.36 -410.32,257.22 -600.16,443.56 -52.7,51.72 -101.35,103.91 -145.98,156.57l0 -1573.74c-164.46,0 -358.69,58.61 -584.41,176.72 -215.21,112.86 -416.43,260.72 -602.79,443.56 -195.1,191.59 -334.19,383.2 -417.31,576.54 -85.73,-197.73 -223.09,-390.2 -412.94,-576.54 -189.85,-186.34 -390.19,-334.2 -600.16,-443.56 -227.46,-118.11 -423.43,-176.72 -589.66,-176.72l0 1549.16c-38.74,-44.33 -80.34,-88.33 -124.83,-132 -189.84,-186.34 -390.18,-334.2 -600.16,-443.56 -227.47,-118.1 -423.42,-176.71 -589.66,-176.71l0 3123.23c169.23,-12.53 340.85,-23.91 514.42,-34.29l0 -2349.69c315.82,155.72 535.42,387.57 658.77,697.28 66.72,167.32 113.86,378.92 141.45,634.58l0 978.29c169.81,-6.63 341.44,-12.12 514.41,-16.66l0 -3090.36c315.82,155.72 535.42,387.57 658.77,697.28 113.74,285.19 170.61,699.02 170.61,1240.56l514.42 0c0,-541.54 56.86,-956.24 171.47,-1243.18 124.23,-311.47 345.58,-545.93 663.16,-705.15l0 3100.34c172.95,4.44 344.58,9.84 514.41,16.37z"/>
   <path class="fil1" d="M2437.77 367.2c160.08,-48.15 355.63,-150.4 491.08,-367.2 131.6,210.63 319.92,313.12 477.32,362.94 -24.06,22.02 -47.89,44.59 -71.47,67.73 -195.09,191.6 -334.19,383.2 -417.31,576.54 -85.74,-197.72 -223.09,-390.19 -412.94,-576.54 -22.09,-21.68 -44.33,-42.84 -66.69,-63.47z"/>
   <path class="fil2" d="M1510.47 4815.91l16.39 -26.71c1.32,-1.87 3.12,-3.53 5.34,-4.85 2.28,-1.38 4.56,-2.08 6.99,-2.08 3.53,0 7.2,1.46 11.14,4.29 3.95,2.77 8.72,5.95 14.26,9.34 5.54,3.46 12.04,6.58 19.44,9.41 7.48,2.84 16.4,4.21 26.78,4.21 16.06,0 28.52,-3.8 37.31,-11.34 8.79,-7.55 13.15,-18.27 13.15,-32.33 0,-7.81 -2.01,-14.19 -6.02,-19.17 -3.95,-4.98 -9.21,-9.14 -15.71,-12.53 -6.51,-3.39 -13.91,-6.3 -22.15,-8.79 -8.24,-2.5 -16.75,-5.06 -25.4,-7.68 -8.66,-2.56 -17.1,-5.82 -25.4,-9.62 -8.31,-3.81 -15.65,-8.86 -22.15,-15.08 -6.5,-6.3 -11.7,-14.06 -15.57,-23.33 -3.95,-9.27 -5.89,-20.69 -5.89,-34.26 0,-11 2.15,-21.73 6.43,-32.18 4.36,-10.52 10.66,-19.72 18.97,-27.76 8.23,-8.03 18.48,-14.46 30.59,-19.38 12.11,-4.91 26.09,-7.34 41.87,-7.34 17.78,0 34.19,2.84 49.21,8.45 15.02,5.61 27.82,13.5 38.48,23.67l-14.05 25.75c-1.67,2.9 -3.39,5.05 -5.33,6.29 -1.87,1.25 -4.22,1.87 -6.92,1.87 -2.98,0 -6.16,-1.03 -9.56,-3.11 -3.39,-2.08 -7.47,-4.36 -12.18,-6.85 -4.63,-2.5 -10.24,-4.77 -16.61,-6.85 -6.36,-2.08 -13.84,-3.12 -22.42,-3.12 -7.75,0 -14.6,0.97 -20.42,2.84 -5.89,1.86 -10.8,4.49 -14.81,7.74 -4.02,3.32 -6.99,7.27 -8.93,11.91 -1.87,4.7 -2.84,9.76 -2.84,15.3 0,6.99 2.02,12.79 5.95,17.44 3.95,4.63 9.21,8.65 15.79,12.04 6.57,3.4 14.05,6.44 22.28,9.14 8.31,2.7 16.82,5.47 25.54,8.31 8.8,2.83 17.31,6.3 25.68,10.24 8.44,3.95 15.86,8.93 22.43,14.88 6.5,5.95 11.83,13.29 15.85,21.94 4.02,8.65 6.02,19.1 6.02,31.49 0,13.49 -2.36,26.22 -7.06,38.2 -4.64,11.9 -11.49,22.29 -20.49,31.08 -8.93,8.79 -19.93,15.71 -32.94,20.69 -12.94,5.06 -27.76,7.55 -44.29,7.55 -9.62,0 -19.04,-0.89 -28.24,-2.76 -9.21,-1.87 -18.13,-4.5 -26.58,-7.96 -8.51,-3.53 -16.53,-7.68 -24.01,-12.6 -7.49,-4.91 -14.13,-10.38 -19.93,-16.4zm302.56 36.4l0 -300.23 56.06 0 0 300.23 -56.06 0zm173.77 0l0 -300.23 29.14 0c2.29,0 4.35,0.06 6.09,0.27 1.73,0.21 3.32,0.7 4.63,1.32 1.38,0.7 2.62,1.59 3.88,2.76 1.18,1.18 2.55,2.7 4.02,4.57l157.31 201.11c-0.34,-4.91 -0.76,-9.68 -1.1,-14.38 -0.35,-4.78 -0.48,-9.15 -0.48,-13.22l0 -182.44 48.99 0 0 300.23 -28.51 0c-4.49,0 -8.16,-0.76 -11.14,-2.21 -2.97,-1.53 -5.82,-3.95 -8.51,-7.34l-156.76 -199.88c0.41,4.49 0.76,8.86 1.03,13.22 0.28,4.28 0.42,8.3 0.42,11.9l0 184.3 -49 0zm353.02 -150.11c0,-22.57 3.6,-43.26 10.73,-62.02 7.13,-18.83 17.31,-34.95 30.38,-48.44 13.08,-13.49 28.73,-24.09 46.79,-31.63 18.13,-7.55 38.2,-11.35 60.21,-11.35 21.94,0 41.38,3.6 58.34,10.73 16.96,7.13 31.35,16.54 43.25,28.1l-18.62 25.89c-1.1,1.66 -2.56,3.11 -4.28,4.36 -1.73,1.31 -4.16,1.94 -7.28,1.94 -2.07,0 -4.15,-0.56 -6.43,-1.74 -2.22,-1.1 -4.63,-2.55 -7.27,-4.35 -2.62,-1.73 -5.68,-3.67 -9.14,-5.75 -3.46,-2.08 -7.48,-3.95 -12.04,-5.68 -4.64,-1.66 -9.9,-3.11 -15.93,-4.36 -6.01,-1.17 -12.93,-1.79 -20.83,-1.79 -13.36,0 -25.61,2.42 -36.75,7.19 -11.14,4.78 -20.76,11.77 -28.79,20.77 -8.03,9.07 -14.33,20.21 -18.76,33.29 -4.49,13.15 -6.71,28.1 -6.71,44.85 0,16.88 2.43,31.9 7.2,45.05 4.77,13.08 11.27,24.16 19.44,33.14 8.17,9 17.85,15.93 28.93,20.7 11.07,4.78 22.98,7.2 35.65,7.2 7.6,0 14.46,-0.42 20.62,-1.17 6.16,-0.83 11.84,-2.15 17.03,-3.95 5.19,-1.8 10.11,-4.16 14.81,-6.99 4.63,-2.77 9.27,-6.29 13.84,-10.45 1.39,-1.18 2.84,-2.15 4.36,-2.91 1.59,-0.77 3.18,-1.1 4.77,-1.1 3.12,0 5.82,1.1 8.1,3.39l21.94 23.81c-12.18,15.16 -27.13,26.72 -44.91,34.74 -17.79,7.96 -39.11,11.97 -63.95,11.97 -22.36,0 -42.36,-3.8 -60.15,-11.34 -17.78,-7.61 -33,-18.21 -45.6,-31.77 -12.6,-13.64 -22.29,-29.83 -28.93,-48.65 -6.72,-18.76 -10.04,-39.32 -10.04,-61.66zm342.7 150.11l0 -300.23 189.36 0 0 44.44 -133.31 0 0 83.05 104.65 0 0 43.18 -104.65 0 0 85.12 133.31 0 0 44.44 -189.36 0zm372.68 0l0 -16.82c0,-3.53 0.7,-7.13 2.15,-10.87 1.38,-3.74 3.74,-7.06 6.99,-10.03l90.73 -91.57c7.62,-7.68 14.4,-15.09 20.49,-22.22 6.02,-7.13 11.07,-14.12 15.02,-21.03 4.02,-6.92 7.06,-13.99 9.21,-21.17 2.15,-7.14 3.25,-14.67 3.25,-22.58 0,-7.13 -1.03,-13.49 -3.11,-18.96 -2.15,-5.54 -5.05,-10.1 -8.86,-13.84 -3.74,-3.74 -8.31,-6.51 -13.71,-8.45 -5.33,-1.87 -11.27,-2.83 -17.92,-2.83 -6.09,0 -11.7,0.89 -16.88,2.62 -5.27,1.8 -9.83,4.22 -13.85,7.34 -3.95,3.12 -7.34,6.72 -10.11,10.87 -2.76,4.16 -4.91,8.73 -6.36,13.71 -2.36,6.36 -5.33,10.59 -9.07,12.73 -3.74,2.08 -9.07,2.56 -16.12,1.52l-27.13 -4.91c2,-14.32 6.01,-26.92 12.04,-37.86 6.02,-10.87 13.5,-20.01 22.43,-27.27 8.93,-7.34 19.17,-12.8 30.73,-16.48 11.56,-3.66 23.95,-5.47 37.17,-5.47 13.77,0 26.5,2.02 38.06,6.09 11.55,4.09 21.38,9.83 29.48,17.38 8.09,7.48 14.46,16.54 19.03,27.06 4.64,10.59 6.92,22.28 6.92,35.16 0,11.06 -1.59,21.38 -4.84,30.8 -3.25,9.4 -7.61,18.4 -13.08,26.99 -5.47,8.58 -11.83,16.96 -19.25,24.98 -7.34,8.1 -14.94,16.19 -22.9,24.5l-67.82 69.28c6.57,-1.87 13.14,-3.32 19.65,-4.43 6.43,-1.03 12.6,-1.59 18.4,-1.59l76.9 0c5.53,0 9.89,1.59 13.14,4.71 3.26,3.18 4.85,7.19 4.85,12.11l0 30.52 -205.63 0zm285.61 -150.05c0,-26.36 2.76,-49.13 8.31,-68.44 5.53,-19.24 13.21,-35.16 23.11,-47.76 9.83,-12.53 21.45,-21.94 34.74,-28.1 13.29,-6.15 27.81,-9.21 43.46,-9.21 15.72,0 30.24,3.05 43.67,9.21 13.43,6.16 25.13,15.58 35.09,28.1 9.89,12.6 17.71,28.52 23.32,47.76 5.61,19.32 8.37,42.08 8.37,68.44 0,26.23 -2.76,49.01 -8.37,68.31 -5.61,19.24 -13.43,35.16 -23.32,47.76 -9.96,12.53 -21.66,21.94 -35.09,28.09 -13.43,6.16 -27.95,9.21 -43.67,9.21 -15.65,0 -30.17,-3.04 -43.46,-9.21 -13.29,-6.15 -24.91,-15.57 -34.74,-28.09 -9.9,-12.6 -17.59,-28.52 -23.11,-47.9 -5.55,-19.31 -8.31,-42.01 -8.31,-68.17zm52.74 0c0,21.66 1.59,39.59 4.71,53.71 3.11,14.12 7.27,25.4 12.6,33.78 5.26,8.37 11.34,14.31 18.26,17.65 6.93,3.39 13.99,5.05 21.32,5.05 7.48,0 14.67,-1.66 21.66,-5.05 6.99,-3.33 13.08,-9.27 18.41,-17.65 5.26,-8.38 9.55,-19.66 12.8,-33.78 3.25,-14.12 4.84,-32.05 4.84,-53.71 0,-21.59 -1.59,-39.52 -4.84,-53.7 -3.25,-14.2 -7.55,-25.54 -12.8,-33.92 -5.33,-8.44 -11.42,-14.32 -18.41,-17.65 -6.99,-3.39 -14.19,-5.05 -21.66,-5.05 -7.34,0 -14.39,1.66 -21.32,5.05 -6.92,3.32 -13,9.21 -18.26,17.65 -5.33,8.38 -9.48,19.72 -12.6,33.92 -3.12,14.19 -4.71,32.11 -4.71,53.7zm238.69 0c0,-26.36 2.76,-49.13 8.3,-68.44 5.54,-19.24 13.22,-35.16 23.12,-47.76 9.82,-12.53 21.45,-21.94 34.73,-28.1 13.29,-6.15 27.82,-9.21 43.47,-9.21 15.71,0 30.24,3.05 43.67,9.21 13.43,6.16 25.12,15.58 35.09,28.1 9.89,12.6 17.71,28.52 23.32,47.76 5.61,19.32 8.37,42.08 8.37,68.44 0,26.23 -2.76,49.01 -8.37,68.31 -5.61,19.24 -13.43,35.16 -23.32,47.76 -9.97,12.53 -21.66,21.94 -35.09,28.09 -13.43,6.16 -27.96,9.21 -43.67,9.21 -15.65,0 -30.18,-3.04 -43.47,-9.21 -13.28,-6.15 -24.91,-15.57 -34.73,-28.09 -9.9,-12.6 -17.59,-28.52 -23.12,-47.9 -5.54,-19.31 -8.3,-42.01 -8.3,-68.17zm52.74 0c0,21.66 1.59,39.59 4.71,53.71 3.11,14.12 7.26,25.4 12.6,33.78 5.26,8.37 11.34,14.31 18.26,17.65 6.93,3.39 13.99,5.05 21.32,5.05 7.47,0 14.67,-1.66 21.66,-5.05 6.99,-3.33 13.08,-9.27 18.41,-17.65 5.26,-8.38 9.54,-19.66 12.8,-33.78 3.25,-14.12 4.84,-32.05 4.84,-53.71 0,-21.59 -1.59,-39.52 -4.84,-53.7 -3.26,-14.2 -7.55,-25.54 -12.8,-33.92 -5.33,-8.44 -11.42,-14.32 -18.41,-17.65 -6.99,-3.39 -14.2,-5.05 -21.66,-5.05 -7.34,0 -14.39,1.66 -21.32,5.05 -6.92,3.32 -13,9.21 -18.26,17.65 -5.34,8.38 -9.48,19.72 -12.6,33.92 -3.12,14.19 -4.71,32.11 -4.71,53.7zm238.68 0c0,-26.36 2.77,-49.13 8.31,-68.44 5.54,-19.24 13.21,-35.16 23.11,-47.76 9.83,-12.53 21.46,-21.94 34.74,-28.1 13.29,-6.15 27.82,-9.21 43.46,-9.21 15.72,0 30.24,3.05 43.67,9.21 13.43,6.16 25.13,15.58 35.09,28.1 9.9,12.6 17.71,28.52 23.33,47.76 5.6,19.32 8.37,42.08 8.37,68.44 0,26.23 -2.77,49.01 -8.37,68.31 -5.62,19.24 -13.43,35.16 -23.33,47.76 -9.96,12.53 -21.66,21.94 -35.09,28.09 -13.43,6.16 -27.95,9.21 -43.67,9.21 -15.64,0 -30.17,-3.04 -43.46,-9.21 -13.28,-6.15 -24.91,-15.57 -34.74,-28.09 -9.9,-12.6 -17.58,-28.52 -23.11,-47.9 -5.54,-19.31 -8.31,-42.01 -8.31,-68.17zm52.75 0c0,21.66 1.59,39.59 4.7,53.71 3.11,14.12 7.27,25.4 12.6,33.78 5.26,8.37 11.35,14.31 18.27,17.65 6.92,3.39 13.98,5.05 21.31,5.05 7.48,0 14.67,-1.66 21.66,-5.05 7,-3.33 13.09,-9.27 18.41,-17.65 5.26,-8.38 9.55,-19.66 12.8,-33.78 3.26,-14.12 4.84,-32.05 4.84,-53.71 0,-21.59 -1.58,-39.52 -4.84,-53.7 -3.25,-14.2 -7.55,-25.54 -12.8,-33.92 -5.32,-8.44 -11.41,-14.32 -18.41,-17.65 -6.99,-3.39 -14.19,-5.05 -21.66,-5.05 -7.34,0 -14.39,1.66 -21.31,5.05 -6.92,3.32 -13.01,9.21 -18.27,17.65 -5.33,8.38 -9.48,19.72 -12.6,33.92 -3.11,14.19 -4.7,32.11 -4.7,53.7z"/>
   <path class="fil3" d="M9379.37 3378.23l0 -2613.27c-107.88,0 -235.27,38.44 -383.32,115.91 -141.17,74.03 -273.15,171.01 -395.38,290.94 -127.96,125.66 -219.21,251.34 -273.71,378.16 -56.25,-129.69 -146.34,-255.94 -270.86,-378.16 -124.52,-122.22 -255.93,-219.21 -393.65,-290.94 -149.19,-77.47 -277.74,-115.91 -386.77,-115.91l0 2613.27 337.41 0 0 -2128.38c207.16,102.14 351.19,254.22 432.1,457.35 74.61,187.07 111.9,458.5 111.9,813.7l337.41 0c0,-355.21 37.3,-627.2 112.47,-815.42 81.49,-204.29 226.67,-358.08 434.97,-462.51l0 2135.26 337.41 0zm2985.69 -1290.57c0,-242.74 -59.1,-468.83 -177.88,-677.7 -116.49,-203.72 -273.16,-364.39 -470.55,-482.6 -203.71,-122.23 -425.21,-183.05 -665.08,-183.05 -238.72,0 -458.5,59.1 -659.34,176.74 -200.85,117.64 -360.94,280.6 -479.74,488.91 -118.77,208.87 -177.88,434.96 -177.88,677.7 0,242.16 59.11,467.1 177.32,674.83 118.21,207.16 274.29,368.99 469.4,485.47 203.71,121.08 426.93,181.91 670.25,181.91 239.86,0 461.37,-60.83 665.08,-181.91 197.4,-117.64 354.63,-279.46 472.27,-486.62 117.63,-206.58 176.16,-431.53 176.16,-673.69zm-337.41 -0.58c0,141.74 -24.67,274.3 -74.03,397.1 -75.16,187.64 -193.38,337.41 -354.06,449.32 -163.54,115.34 -346.6,172.72 -548.59,172.72 -277.74,0 -510.15,-98.7 -697.79,-296.68 -187.64,-197.97 -281.18,-438.41 -281.18,-722.47 0,-282.9 94.11,-523.34 282.33,-721.89 187.64,-197.97 420.04,-297.25 696.64,-297.25 273.72,0 504.98,99.28 693.78,298.41 188.79,199.12 282.9,438.98 282.9,720.74zm2388.9 1291.15l0 -2582.28 -337.42 0 0 963.47c-56.24,-113.61 -127.97,-222.65 -215.19,-328.24 -307,-372.99 -687.45,-595.06 -1141.37,-666.22l0 2613.27 337.42 0 0 -2151.9c68.28,25.82 139.44,64.27 213.46,115.91 156.09,109.03 304.71,258.8 445.87,450.46 239.87,325.37 359.8,655.33 359.8,990.45l0 595.07 337.42 0zm1866.13 0l0 -2633.93c-467.11,293.8 -842.98,680 -1127.6,1159.73 -259.96,438.41 -430.38,929.62 -511.29,1474.2l331.68 0c30.99,-270.86 104.44,-547.45 219.78,-829.78l750 0 0 829.78 337.42 0zm-337.42 -1139.65l-605.4 0c88.95,-180.19 187.08,-343.16 294.96,-487.77 108.46,-144.6 211.74,-251.34 310.44,-320.77l0 808.54zm2496.2 1139.65l0 -2582.28 -337.41 0 0 963.47c-56.24,-113.61 -127.97,-222.65 -215.19,-328.24 -307.01,-372.99 -687.45,-595.06 -1141.37,-666.22l0 2613.27 337.41 0 0 -2151.9c68.29,25.82 139.44,64.27 213.47,115.91 156.08,109.03 304.71,258.8 445.87,450.46 239.86,325.37 359.8,655.33 359.8,990.45l0 595.07 337.41 0zm2148.46 -1291.15c0,-421.2 -130.83,-746.56 -393.08,-974.96 -242.16,-210.6 -563.51,-316.18 -963.47,-316.18l-337.42 0 0 2582.28 337.42 0c118.78,0 236.42,-12.05 352.91,-35.59 367.82,-73.44 638.68,-249.62 813.7,-527.36 126.82,-201.99 189.94,-444.72 189.94,-728.2zm-351.19 0c0,336.85 -95.83,585.89 -287.49,748.86 -171.58,145.75 -410.87,218.64 -717.87,218.64l0 -1928.11c319.63,0 562.36,71.73 728.2,215.19 184.77,160.68 277.16,409.15 277.16,745.42z"/>
   <path class="fil4" d="M9072.69 4424.38l0 -550.9 77.22 0c4.56,0 8.37,0.13 11.8,0.38 3.31,0.26 6.22,0.89 8.9,2.04 2.53,1.14 4.95,2.79 7.24,5.08 2.16,2.16 4.31,5.2 6.35,8.89l164.58 306.05c4.2,8.26 8.12,16.64 11.81,25.4 3.69,8.64 7.5,17.4 11.17,26.41 3.43,-9.52 7.11,-18.54 10.92,-27.43 3.95,-8.77 7.88,-17.15 12.2,-25.02l162.42 -305.41c2.03,-3.69 4.19,-6.73 6.6,-8.89 2.29,-2.29 4.82,-3.94 7.61,-5.08 2.67,-1.14 5.72,-1.78 8.9,-2.04 3.17,-0.25 7.24,-0.38 11.94,-0.38l76.95 0 0 550.9 -89.92 0 0 -355.59c0,-6.72 0.14,-14.1 0.52,-21.97 0.38,-7.99 1.01,-15.87 1.78,-23.87l-166.75 312.14c-7.99,14.86 -19.93,22.48 -36.07,22.73l-14.59 0c-16.39,0 -28.32,-7.61 -36.08,-22.73l-168.52 -313.16c0.64,8.38 1.39,16.51 2.03,24.5 0.64,7.87 0.89,15.37 0.89,22.35l0 355.59 -89.92 0zm812.98 0l0 -550.9 347.45 0 0 81.53 -244.59 0 0 152.39 192.01 0 0 79.24 -192.01 0 0 156.2 244.59 0 0 81.54 -347.45 0zm530.92 0l0 -550.9 190.24 0c36.07,0 66.92,3.43 92.7,10.42 25.79,6.86 46.86,16.63 63.24,29.33 16.38,12.58 28.45,27.94 36.19,45.85 7.74,17.9 11.56,38.23 11.56,61.09 0,12.82 -1.91,25.14 -5.85,36.95 -3.81,11.68 -9.77,22.73 -17.9,33.02 -8.13,10.29 -18.29,19.55 -30.61,28.06 -12.32,8.38 -27.05,15.5 -44.19,21.08 76.07,17.14 114.29,58.15 114.54,123.05 0,23.37 -4.44,44.95 -13.46,64.77 -8.89,19.94 -21.97,36.96 -38.99,51.31 -17.02,14.23 -38.09,25.53 -63.11,33.66 -25.01,8.25 -53.59,12.32 -85.72,12.32l-208.65 0zm102.87 -79.25l103.62 0c19.06,0 34.92,-2.29 47.88,-6.85 12.82,-4.7 23.24,-10.8 30.99,-18.42 7.75,-7.61 13.34,-16.5 16.76,-26.67 3.31,-10.28 4.96,-21.07 4.96,-32.64 0,-11.94 -1.91,-22.72 -5.72,-32.25 -3.94,-9.65 -9.78,-17.9 -17.9,-24.76 -8,-6.86 -18.42,-11.94 -31.12,-15.5 -12.83,-3.43 -28.19,-5.21 -46.23,-5.21l-103.25 0 0 162.3zm0 -233.92l81.65 0c35.05,0 61.46,-6.34 79.5,-18.92 18.03,-12.58 27.05,-32.64 27.05,-60.32 0,-28.7 -8.13,-49.02 -24.39,-61.09 -16.25,-12.07 -41.65,-18.15 -76.2,-18.15l-87.62 0 0 158.48zm491.68 313.17l0 -550.9 347.45 0 0 81.53 -244.59 0 0 152.39 192.01 0 0 79.24 -192.01 0 0 156.2 244.59 0 0 81.54 -347.45 0zm530.93 0l0 -550.9 102.86 0 0 466.32 219.45 0 0 84.58 -322.3 0zm488.51 0l0 -550.9 102.86 0 0 466.32 219.45 0 0 84.58 -322.3 0zm422.72 0l216.53 -550.9 104.51 0 216.52 550.9 -79.24 0c-8.9,0 -16.13,-2.29 -21.72,-6.73 -5.59,-4.44 -9.9,-9.9 -12.82,-16.38l-41.02 -113.28 -228.33 0 -41.02 113.28c-1.91,5.96 -5.85,11.3 -11.69,16 -5.85,4.69 -13.08,7.11 -21.71,7.11l-80.01 0zm180.85 -208.01l175.51 0 -66.93 -183.38c-3.17,-8.13 -6.6,-17.77 -10.15,-28.83 -3.69,-11.04 -7.25,-22.98 -10.67,-35.81 -3.43,12.82 -6.99,24.89 -10.42,36.19 -3.43,11.3 -6.99,21.07 -10.42,29.21l-66.92 182.61zm507.05 208.01l0 -550.9 168.78 0c37.72,0 69.97,3.94 97.02,11.68 26.92,7.87 49.02,18.67 66.16,32.51 17.28,13.98 29.98,30.62 38.23,50.04 8.25,19.55 12.32,40.9 12.32,64.13 0,18.67 -2.79,36.19 -8.38,52.58 -5.59,16.51 -13.59,31.49 -24.13,44.95 -10.55,13.59 -23.5,25.4 -38.99,35.56 -15.5,10.16 -33.02,18.16 -52.84,24.13 13.08,7.5 24.26,18.03 33.78,31.62l138.18 203.7 -92.71 0c-17.53,0 -30.22,-6.86 -37.85,-20.45l-116.07 -176.52c-4.2,-6.73 -8.89,-11.55 -14.11,-14.35 -5.2,-2.91 -12.82,-4.31 -22.85,-4.31l-43.68 0 0 215.64 -102.87 0zm102.87 -288.78l63.62 0c19.18,0 35.94,-2.42 50.29,-7.24 14.34,-4.83 26.04,-11.56 35.3,-20.06 9.27,-8.51 16.13,-18.67 20.7,-30.36 4.57,-11.55 6.86,-24.38 6.86,-38.22 0,-28.06 -9.14,-49.53 -27.56,-64.52 -18.41,-14.98 -46.34,-22.47 -84.07,-22.47l-65.14 0 0 182.86zm849.54 288.78l0 -550.9 347.45 0 0 81.53 -244.59 0 0 163.06 205.72 0 0 81.53 -205.72 0 0 224.78 -102.87 0zm413.07 0l216.52 -550.9 104.51 0 216.52 550.9 -79.24 0c-8.89,0 -16.12,-2.29 -21.72,-6.73 -5.59,-4.44 -9.9,-9.9 -12.82,-16.38l-41.02 -113.28 -228.33 0 -41.02 113.28c-1.91,5.96 -5.85,11.3 -11.68,16 -5.85,4.69 -13.09,7.11 -21.72,7.11l-80 0zm180.84 -208.01l175.51 0 -66.92 -183.38c-3.18,-8.13 -6.61,-17.77 -10.16,-28.83 -3.69,-11.04 -7.25,-22.98 -10.67,-35.81 -3.43,12.82 -6.99,24.89 -10.42,36.19 -3.43,11.3 -6.99,21.07 -10.42,29.21l-66.92 182.61zm507.05 208.01l0 -550.9 190.24 0c36.07,0 66.92,3.43 92.7,10.42 25.79,6.86 46.86,16.63 63.24,29.33 16.38,12.58 28.45,27.94 36.19,45.85 7.74,17.9 11.56,38.23 11.56,61.09 0,12.82 -1.91,25.14 -5.85,36.95 -3.81,11.68 -9.77,22.73 -17.9,33.02 -8.13,10.29 -18.29,19.55 -30.61,28.06 -12.32,8.38 -27.05,15.5 -44.2,21.08 76.07,17.14 114.3,58.15 114.55,123.05 0,23.37 -4.44,44.95 -13.46,64.77 -8.89,19.94 -21.97,36.96 -38.99,51.31 -17.02,14.23 -38.09,25.53 -63.11,33.66 -25.02,8.25 -53.59,12.32 -85.72,12.32l-208.65 0zm102.87 -79.25l103.62 0c19.06,0 34.92,-2.29 47.88,-6.85 12.82,-4.7 23.24,-10.8 30.99,-18.42 7.75,-7.61 13.34,-16.5 16.76,-26.67 3.31,-10.28 4.96,-21.07 4.96,-32.64 0,-11.94 -1.91,-22.72 -5.72,-32.25 -3.94,-9.65 -9.78,-17.9 -17.9,-24.76 -8,-6.86 -18.42,-11.94 -31.12,-15.5 -12.83,-3.43 -28.19,-5.21 -46.23,-5.21l-103.25 0 0 162.3zm0 -233.92l81.65 0c35.05,0 61.46,-6.34 79.5,-18.92 18.03,-12.58 27.05,-32.64 27.05,-60.32 0,-28.7 -8.13,-49.02 -24.39,-61.09 -16.25,-12.07 -41.65,-18.15 -76.2,-18.15l-87.62 0 0 158.48zm491.68 313.17l0 -550.9 168.78 0c37.72,0 69.97,3.94 97.02,11.68 26.92,7.87 49.02,18.67 66.16,32.51 17.28,13.98 29.98,30.62 38.23,50.04 8.25,19.55 12.32,40.9 12.32,64.13 0,18.67 -2.79,36.19 -8.38,52.58 -5.59,16.51 -13.59,31.49 -24.13,44.95 -10.55,13.59 -23.5,25.4 -38.99,35.56 -15.5,10.16 -33.02,18.16 -52.84,24.13 13.08,7.5 24.27,18.03 33.78,31.62l138.18 203.7 -92.71 0c-17.53,0 -30.22,-6.86 -37.85,-20.45l-116.07 -176.52c-4.2,-6.73 -8.89,-11.55 -14.1,-14.35 -5.21,-2.91 -12.83,-4.31 -22.86,-4.31l-43.68 0 0 215.64 -102.87 0zm102.87 -288.78l63.62 0c19.18,0 35.94,-2.42 50.29,-7.24 14.34,-4.83 26.04,-11.56 35.3,-20.06 9.27,-8.51 16.13,-18.67 20.7,-30.36 4.57,-11.55 6.86,-24.38 6.86,-38.22 0,-28.06 -9.14,-49.53 -27.56,-64.52 -18.41,-14.98 -46.34,-22.47 -84.06,-22.47l-65.15 0 0 182.86zm479.74 288.78l0 -550.9 102.87 0 0 550.9 -102.87 0zm318.84 0l0 -550.9 102.87 0 0 229.35 24.13 0c9.78,0 17.78,-1.39 24.01,-4.07 6.34,-2.66 11.81,-6.85 16.25,-12.57l152.14 -190.88c6.48,-8.12 13.2,-13.85 20.06,-17.02 6.99,-3.17 15.75,-4.82 26.41,-4.82l88.27 0 -185.28 228.2c-10.93,13.72 -22.23,23.62 -33.91,29.59 8.38,2.91 15.99,7.24 22.73,12.69 6.72,5.47 12.94,12.7 18.92,21.59l191.25 258.81 -90.04 0c-12.19,0 -21.2,-1.78 -27.3,-5.21 -6.09,-3.43 -11.17,-8.38 -15.12,-14.85l-155.81 -203.58c-4.82,-6.98 -10.42,-11.81 -16.76,-14.59 -6.48,-2.67 -15.63,-4.07 -27.57,-4.07l-32.38 0 0 242.3 -102.87 0zm549.22 0l216.52 -550.9 104.51 0 216.52 550.9 -79.24 0c-8.89,0 -16.12,-2.29 -21.71,-6.73 -5.6,-4.44 -9.91,-9.9 -12.83,-16.38l-41.02 -113.28 -228.33 0 -41.02 113.28c-1.91,5.96 -5.85,11.3 -11.68,16 -5.85,4.69 -13.08,7.11 -21.72,7.11l-80 0zm180.84 -208.01l175.51 0 -66.92 -183.38c-3.18,-8.13 -6.6,-17.77 -10.16,-28.83 -3.69,-11.04 -7.25,-22.98 -10.67,-35.81 -3.43,12.82 -6.99,24.89 -10.42,36.19 -3.43,11.3 -6.99,21.07 -10.42,29.21l-66.92 182.61zm462.73 141.21l30.1 -49.02c2.41,-3.43 5.72,-6.47 9.78,-8.89 4.19,-2.53 8.37,-3.81 12.82,-3.81 6.47,0 13.2,2.66 20.45,7.87 7.24,5.08 15.99,10.92 26.15,17.14 10.16,6.35 22.1,12.07 35.69,17.28 13.71,5.21 30.09,7.74 49.15,7.74 29.45,0 52.31,-6.98 68.44,-20.83 16.13,-13.84 24.13,-33.52 24.13,-59.31 0,-14.35 -3.68,-26.04 -11.04,-35.17 -7.24,-9.15 -16.89,-16.77 -28.83,-22.98 -11.94,-6.23 -25.53,-11.56 -40.64,-16.13 -15.11,-4.57 -30.73,-9.27 -46.6,-14.1 -15.88,-4.69 -31.37,-10.67 -46.6,-17.66 -15.25,-6.99 -28.71,-16.25 -40.65,-27.69 -11.94,-11.55 -21.45,-25.78 -28.57,-42.8 -7.24,-17.02 -10.8,-37.96 -10.8,-62.86 0,-20.19 3.94,-39.88 11.82,-59.06 7.99,-19.3 19.55,-36.19 34.79,-50.92 15.11,-14.73 33.9,-26.54 56.13,-35.56 22.23,-9.02 47.88,-13.46 76.83,-13.46 32.64,0 62.74,5.21 90.29,15.49 27.56,10.29 51.05,24.76 70.6,43.43l-25.78 47.24c-3.04,5.34 -6.22,9.27 -9.78,11.56 -3.43,2.29 -7.74,3.43 -12.69,3.43 -5.46,0 -11.3,-1.9 -17.53,-5.72 -6.22,-3.81 -13.72,-8 -22.35,-12.58 -8.51,-4.57 -18.8,-8.76 -30.48,-12.57 -11.68,-3.82 -25.4,-5.72 -41.15,-5.72 -14.23,0 -26.79,1.77 -37.46,5.2 -10.81,3.44 -19.81,8.26 -27.19,14.23 -7.36,6.1 -12.82,13.34 -16.38,21.85 -3.43,8.63 -5.2,17.9 -5.2,28.06 0,12.82 3.68,23.49 10.92,32 7.24,8.51 16.89,15.88 28.96,22.1 12.07,6.22 25.78,11.81 40.9,16.76 15.23,4.95 30.86,10.03 46.86,15.24 16.12,5.21 31.74,11.56 47.11,18.8 15.49,7.24 29.08,16.38 41.15,27.31 11.94,10.92 21.72,24.38 29.08,40.25 7.37,15.88 11.04,35.05 11.04,57.79 0,24.75 -4.31,48.12 -12.94,70.09 -8.51,21.84 -21.08,40.9 -37.6,57.02 -16.38,16.12 -36.57,28.83 -60.45,37.97 -23.74,9.26 -50.92,13.84 -81.27,13.84 -17.66,0 -34.92,-1.65 -51.81,-5.08 -16.89,-3.43 -33.27,-8.25 -48.77,-14.6 -15.62,-6.47 -30.35,-14.1 -44.07,-23.11 -13.71,-9.02 -25.91,-19.05 -36.57,-30.1zm555.18 66.8l0 -550.9 102.87 0 0 550.9 -102.87 0z"/>
  </g>
 </g>
</svg>
