<?xml version="1.0" encoding="UTF-8"?>
<!DOCTYPE svg PUBLIC "-//W3C//DTD SVG 1.1//EN" "http://www.w3.org/Graphics/SVG/1.1/DTD/svg11.dtd">
<!-- Creator: CorelDRAW 2020 (64-Bit) -->
<svg xmlns="http://www.w3.org/2000/svg" xml:space="preserve" width="59.6186mm" height="78.2554mm" version="1.1" shape-rendering="geometricPrecision" text-rendering="geometricPrecision" image-rendering="optimizeQuality" fill-rule="evenodd" clip-rule="evenodd"
viewBox="0 0 5961.86 7825.54"
 xmlns:xlink="http://www.w3.org/1999/xlink"
 xmlns:xodm="http://www.corel.com/coreldraw/odm/2003">
 <g id="Слой_x0020_1">
  <metadata id="CorelCorpID_0Corel-Layer"/>
  <g id="_2075828915792">
   <polygon fill="#E31E24" fill-rule="nonzero" points="5961.86,5807.98 4342.3,5807.98 4342.3,4000.65 2980.94,6025.75 1611.74,4000.65 1611.74,5807.98 -0,5807.98 -0,0 2980.94,3562.51 5961.86,2.61 "/>
   <path fill="#2B2A29" fill-rule="nonzero" d="M793.37 7398.51c145.06,1.47 250.18,-11.45 315.42,-38.64l27.94 40.75c5.28,8.6 0.69,11.44 -13.97,8.6 -30.67,8.61 -72.57,17.22 -125.81,25.73l0 115.91 193.7 0 0 47.25 -193.7 0 0 218.82 -45.91 0 0 -218.82 -193.61 0 0 -47.25 193.61 0 0 -111.61c-49.23,2.94 -97.79,4.31 -145.74,4.31l-11.93 -45.05zm852.39 -42.94l0 253.25 -39.86 0 0 -10.71 -103.83 0 0 57.86 155.71 0 0 40.84 -155.71 0 0 64.36 201.62 0 0 40.75 -441.23 0 0 -40.75 199.66 0 0 -64.36 -155.71 0 0 -40.84 155.71 0 0 -57.86 -103.84 0 0 19.32 -39.86 0 0 -261.86 327.34 0zm-183.64 100.9l0 -60.06 -103.84 0 0 60.06 103.84 0zm143.78 0l0 -60.06 -103.83 0 0 60.06 103.83 0zm-143.78 100.8l0 -60.06 -103.84 0 0 60.06 103.84 0zm143.78 -60.06l-103.83 0 0 60.06 103.83 0 0 -60.06zm556.99 -21.42c5.28,9.97 0,14.28 -16.01,12.81 -67.89,97.34 -144.38,175.24 -229.56,233.94 13.28,18.58 39.95,27.92 79.81,27.92l217.64 0 -9.97 47.15 -209.63 0c-58.52,0 -102.47,-27.83 -131.77,-83.68 -13.29,28.66 -28.62,53.65 -45.91,75.17l-37.91 -32.23c35.95,-40.01 61.84,-84.42 77.86,-133.03l33.9 19.32 -11.93 30.03 11.93 17.12c79.9,-57.22 145.74,-125.17 197.7,-203.81l-261.59 0 0 -40.74 139.78 0 0 -100.9 43.96 0c13.28,2.84 13.97,8.61 1.96,17.21l0 83.69 103.83 0 7.92 -10.81 37.99 40.84zm267.46 -94.49c-41.22,54.39 -79.12,92.29 -113.8,113.81l-23.93 -38.64c37.31,-22.89 74.53,-60.8 111.84,-113.72l29.9 27.84c6.64,8.6 5.36,12.17 -4.01,10.71zm-27.93 439.94l-39.87 0 0 -227.43c-13.37,15.75 -33.3,32.87 -59.97,51.45l-25.89 -42.85c57.24,-37.27 105.79,-89.45 145.74,-156.65l31.95 27.83c6.64,8.61 5.27,12.17 -4.01,10.71 -16.01,22.89 -31.94,45.14 -47.95,66.56l0 270.38zm291.48 -450.65l0 40.83 -215.59 0 0 -40.83 215.59 0zm-237.57 178.17l0 -40.84 277.52 0 0 40.84 -83.82 0 0 218.82c0,30.03 -11.32,45.05 -33.98,45.05l-53.92 0 -7.92 -40.74 47.87 0c5.36,0 8,-2.84 8,-8.61l0 -214.52 -153.75 0zm355.37 171.67l45.92 0 0 47.15 -23.94 57.96 -21.98 0 19.94 -57.96 -19.94 0 0 -47.15zm698.73 -160.96c-6.64,8.61 -10.65,8.61 -12.01,0l-9.96 -45.04 35.94 0c14.66,-45.79 29.99,-105.94 45.91,-180.28l47.96 15.01c7.92,7.15 5.28,12.18 -8.01,15.02 -16.01,51.45 -31.94,100.9 -47.95,148.05l119.85 -8.61c-12.02,-21.42 -25.98,-43.58 -41.91,-66.47l33.9 -17.21c30.58,35.79 57.92,79.47 81.86,130.92l-39.95 21.43 -15.93 -34.34 -189.7 21.52zm-117.8 -77.27c-6.65,45.78 -15.24,90.09 -25.89,133.03 15.92,11.45 31.94,22.89 47.87,34.33 9.28,-35.7 16.61,-91.55 21.97,-167.36l-43.95 0zm53.92 190.99c10.65,8.6 23.93,20.05 39.95,34.33l-21.98 45.05c-9.28,-11.45 -21.29,-23.63 -35.95,-36.44 -21.29,37.17 -52.55,70.04 -93.78,98.7l-25.98 -34.34c38.59,-27.19 68.58,-57.95 89.87,-92.29 -14.66,-11.45 -29.3,-23.62 -43.96,-36.44l-9.96 27.84 -35.95 -17.12c19.93,-52.92 35.26,-113.08 45.91,-180.28l-47.95 0 0 -40.75 53.92 0c4,-32.96 8,-66.56 12.01,-100.89l35.94 8.6c13.29,4.31 13.29,9.25 0,15.02 -2.64,25.73 -6.05,51.45 -9.96,77.27l45.91 0 7.92 -8.6 29.98 21.42 -5.96 8.61c-5.36,93.02 -15.33,163.06 -29.98,210.31zm233.56 120.21l-125.72 0 0 27.84 -39.95 0 0 -218.83 205.62 0 0 210.22 -39.95 0 0 -19.23zm0 -40.83l0 -109.41 -125.72 0 0 109.41 125.72 0zm139.78 -171.67l0 -47.15 197.62 0 0 -120.22 -159.72 0 0 -47.25 359.38 0 0 47.25 -153.75 0 0 120.22 193.7 0 0 47.15 -193.7 0 0 201.7c0,18.58 -8.61,27.92 -25.89,27.92l-53.92 0 -9.97 -47.24 35.86 0c5.36,0 8.01,-2.84 8.01,-8.51l0 -173.87 -197.62 0zm515.08 203.9c57.24,-54.39 88.51,-123.06 93.78,-206.01l45.92 10.71c5.36,5.67 3.31,9.25 -5.97,10.71 -1.36,18.59 -5.96,42.95 -13.97,72.98 18.66,24.36 47.96,48.61 87.82,72.97l0 -210.31 -107.75 0 0 19.32 -39.95 0 0 -203.9 315.42 0 0 197.49 -39.95 0 0 -12.91 -87.82 0 0 72.97 143.79 0 0 40.74 -143.79 0 0 107.31c12.01,2.84 28.63,4.3 49.92,4.3l145.74 0 -8.01 40.75 -149.74 0c-70.53,0 -130.41,-29.3 -179.65,-87.99 -21.29,48.71 -46.59,85.88 -75.89,111.61l-29.9 -40.74zm335.35 -392.7l-235.52 0 0 103.01 235.52 0 0 -103.01zm425.22 105.11c59.97,35.8 109.2,74.44 147.79,115.92l-31.94 38.63c-38.59,-41.57 -85.18,-80.84 -139.79,-118.01l23.94 -36.54zm-71.81 311.21l0 -377.68 -179.73 0 0 -47.24 429.22 0 0 47.24 -203.57 0 0 377.68 -45.92 0z"/>
   <path fill="#2B2A29" fill-rule="nonzero" d="M566.22 7109.53l-145.19 0 0 -393.06 -5.18 0 -74.67 393.06 -116.15 0 -74.67 -393.06 -5.18 0 0 393.06 -145.18 0 0 -725.92 188.73 0 94.38 510.22 94.37 -510.22 188.74 0 0 725.92zm445.92 0l-142.08 0 -6.74 -96.44 -11.95 -176.3 0.03 0 -24.89 -301.81 -8.3 0 -22.05 260.32 -0.01 0 -0.54 7.95 -2.29 33.54 0.03 0 -10.06 149.26 -8.63 123.48 -142.08 0 75.71 -725.92 228.14 0 75.71 725.92zm421.03 0l-163.85 0 0 -78.35 0 -306.38 0 -73.84 0 -112.33c0,-24.2 -9.07,-36.29 -26.96,-36.29l-18.67 0 0 148.62 0 13.92 0 96.21 0 79.85 0 68.7 0 129.56 0 70.33 -145.18 0 0 -725.92 228.14 0c44.94,0 75.7,15.21 92.3,45.63 10.37,18.67 15.55,46.67 15.55,84l0 225.04c0,18.66 -2.07,33.18 -6.22,43.55 -8.3,20.74 -23.85,35.61 -46.67,44.59l71.56 283.11zm427.26 -725.92l-93.34 725.92 -192.89 0 -93.33 -725.92 147.26 0 39.4 535.11 6.23 0 39.4 -535.11 147.27 0zm367.1 725.92l-300.73 0 0 -725.92 294.51 0 0 79.86 -149.34 0 0 225.03 149.34 0 0 79.85 -149.34 0 0 261.33 155.56 0 0 79.85zm342.21 0l-275.84 0 0 -725.92 145.18 0 0 646.07 130.66 0 0 79.85zm766.37 -129.63c0,36.65 -5.18,64.65 -15.55,84 -16.6,30.42 -47.36,45.63 -92.3,45.63l-120.29 0c-44.94,0 -75.71,-15.21 -92.3,-45.63 -10.37,-18.66 -15.55,-46.66 -15.55,-84l0 -466.66c0,-36.64 5.18,-64.64 15.55,-84 16.59,-30.42 47.36,-45.63 92.3,-45.63l120.29 0c44.94,0 75.7,15.21 92.3,45.63 10.37,18.67 15.55,46.67 15.55,84l0 102.67 -145.18 0 0 -105.27c0,-15.91 -7.61,-23.85 -22.82,-23.85 -6.22,0 -11.6,1.75 -16.07,5.18 -4.47,3.43 -6.74,9.73 -6.74,18.67l0 471.87c0,15.85 7.61,23.85 22.81,23.85 8.3,0 14.19,-2.77 17.63,-8.29 3.45,-5.52 5.19,-10.72 5.19,-15.56l0 -127.05 145.18 0 0 124.44zm439.7 129.63l-163.39 3.77 -0.46 -82.12 0 -306.38 0 -150.44 0 -51.28c0,-24.2 -9.01,-36.29 -26.96,-36.29l-18.67 0 0 87.57 0 186.73 0 79.85 0 268.59 -145.18 0 0 -725.92 228.14 0c44.94,0 75.7,15.21 92.3,45.63 10.37,18.67 15.55,46.67 15.55,84l0 225.04c0,18.66 -2.07,33.18 -6.22,43.55 -8.3,20.74 -23.85,35.61 -46.67,44.59l71.56 283.11zm367.1 0l-300.73 0 0 -725.92 294.51 0 0 79.86 -149.33 0 0 225.03 149.33 0 0 79.85 -149.33 0 0 261.33 155.55 0 0 79.85zm427.26 0l-142.08 0 -13.48 -192.88 -0.27 0 -5.41 -79.86 0.5 0 -24.89 -301.81 -8.3 0 -22.05 260.36 -0.48 -0.04 -12.87 190.75 0.47 0.16 -8.62 123.32 -142.08 0 75.71 -725.92 228.14 0 75.71 725.92zm367.1 -646.06l-87.11 0 0 646.06 -145.18 0 0 -646.06 -87.11 0 0 -79.86 319.4 0 0 79.86zm211.55 646.06l-145.18 0 0 -725.92 145.18 0 0 725.92zm445.93 -725.92l-93.33 725.92 -192.89 0 -93.34 -725.92 147.27 0 39.4 535.11 6.23 0 39.4 -535.11 147.26 0zm367.11 725.92l-300.74 0 0 -725.92 294.52 0 0 79.86 -149.34 0 0 225.03 149.34 0 0 79.85 -149.34 0 0 261.33 155.56 0 0 79.85z"/>
  </g>
 </g>
</svg>
